M48
; DRILL file {KiCad 7.0.10} date Sa 20 Apr 2024 11:29:55 CEST
; FORMAT={-:-/ absolute / metric / decimal}
; #@! TF.CreationDate,2024-04-20T11:29:55+02:00
; #@! TF.GenerationSoftware,Kicad,Pcbnew,7.0.10
; #@! TF.FileFunction,Plated,1,2,PTH
FMAT,2
METRIC
; #@! TA.AperFunction,Plated,PTH,ViaDrill
T1C0.400
; #@! TA.AperFunction,Plated,PTH,ComponentDrill
T2C0.750
; #@! TA.AperFunction,Plated,PTH,ComponentDrill
T3C0.800
; #@! TA.AperFunction,Plated,PTH,ComponentDrill
T4C0.900
; #@! TA.AperFunction,Plated,PTH,ComponentDrill
T5C1.000
; #@! TA.AperFunction,Plated,PTH,ComponentDrill
T6C3.500
%
G90
G05
T1
X74.93Y-29.845
X76.2Y-29.845
X76.2Y-91.44
X76.848Y-73.756
X77.47Y-29.845
X77.47Y-91.44
X78.74Y-29.845
X78.74Y-91.44
X80.01Y-76.2
X80.01Y-91.44
X81.28Y-91.44
X82.55Y-83.82
X82.55Y-91.44
X87.63Y-74.93
X88.9Y-72.968
X90.805Y-72.968
X93.345Y-86.36
X93.345Y-91.802
X93.801Y-54.223
X94.753Y-54.676
X95.885Y-55.245
X95.885Y-72.968
X97.155Y-30.48
X97.155Y-55.88
X97.578Y-75.419
X97.578Y-80.588
X97.578Y-83.793
X97.79Y-44.45
X97.79Y-72.188
X98.425Y-56.515
X99.06Y-36.83
X99.139Y-73.66
X99.139Y-82.55
X100.33Y-41.91
X100.731Y-91.206
X101.833Y-92.311
X104.14Y-78.74
X104.14Y-86.36
X104.687Y-45.173
X104.775Y-30.48
X104.775Y-91.44
X105.41Y-58.42
X106.68Y-51.916
X106.68Y-71.12
X109.22Y-59.69
X109.367Y-34.898
X109.855Y-46.99
X110.49Y-35.56
X110.49Y-45.72
X111.125Y-74.93
X111.498Y-86.36
X111.76Y-44.45
X113.418Y-48.895
X114.154Y-55.245
X116.84Y-62.23
X118.11Y-30.291
X118.11Y-92.71
X120.584Y-59.722
X120.65Y-72.879
X120.65Y-77.47
X120.65Y-85.09
X120.65Y-87.63
X123.19Y-44.45
X123.372Y-36.83
X125.095Y-50.165
X125.095Y-63.189
X125.73Y-29.21
X126.365Y-62.23
X127.635Y-29.21
X128.164Y-33.182
X128.57Y-50.8
X128.57Y-58.42
X132.311Y-34.29
X132.715Y-46.99
X133.35Y-44.45
X133.985Y-74.93
X134.374Y-86.995
X134.62Y-29.784
X134.802Y-36.83
X135.89Y-54.223
X136.525Y-50.165
X136.525Y-62.23
X139.065Y-59.69
X139.7Y-92.71
X140.97Y-92.71
X142.24Y-92.71
X142.875Y-32.385
X142.875Y-49.53
X143.51Y-77.47
X143.51Y-85.09
X143.775Y-38.1
X143.775Y-43.18
X146.05Y-92.136
X146.685Y-89.535
X147.955Y-63.189
X148.59Y-28.593
X149.225Y-62.23
X149.86Y-86.36
X150.005Y-60.02
X150.966Y-60.96
X152.4Y-51.916
X154.743Y-74.154
X154.743Y-80.01
X155.171Y-34.29
X155.523Y-78.74
X156.21Y-46.99
X156.21Y-81.28
X156.303Y-73.66
X156.845Y-60.527
X157.233Y-87.607
X157.48Y-73.66
X157.662Y-43.18
X158.182Y-74.927
X159.224Y-50.115
X162.56Y-40.64
X162.56Y-93.326
X163.83Y-51.916
X163.83Y-93.345
X165.1Y-93.326
X165.735Y-44.45
X165.735Y-59.69
X166.127Y-36.83
X166.37Y-77.47
X166.37Y-85.09
X168.91Y-87.63
X169.093Y-34.29
X169.545Y-59.511
X170.815Y-63.189
X170.815Y-67.31
X171.45Y-28.575
X173.254Y-36.094
X173.99Y-43.18
X178.046Y-37.465
X178.435Y-46.99
X179.705Y-74.93
X180.094Y-86.36
X181.61Y-51.916
X182.423Y-67.132
X183.515Y-58.42
X184.15Y-86.36
X184.785Y-29.784
X185.42Y-35.56
X186.69Y-67.31
X186.69Y-94.615
X187.814Y-51.916
X187.96Y-54.223
X189.23Y-77.47
X189.23Y-85.09
X191.968Y-34.925
X193.51Y-51.666
X194.109Y-50.8
X194.294Y-62.218
X194.31Y-27.305
X194.31Y-48.895
X194.617Y-71.755
X194.945Y-94.615
X195.125Y-62.865
X195.125Y-73.025
X196.215Y-94.615
X197.485Y-94.615
X198.755Y-94.615
T2
X87.355Y-59.52
X87.355Y-60.79
X87.355Y-62.06
X92.075Y-59.52
X92.075Y-60.79
X92.075Y-62.06
X217.17Y-39.37
X217.17Y-40.64
X217.17Y-41.91
X217.17Y-45.085
X217.17Y-46.355
X217.17Y-47.625
X217.17Y-50.8
X217.17Y-52.07
X217.17Y-53.34
X217.17Y-56.515
X217.17Y-57.785
X217.17Y-59.055
X217.17Y-62.23
X217.17Y-63.5
X217.17Y-64.77
X217.17Y-67.945
X217.17Y-69.215
X217.17Y-70.485
X217.17Y-73.66
X217.17Y-74.93
X217.17Y-76.2
X217.17Y-79.375
X217.17Y-80.645
X217.17Y-81.915
T3
X83.82Y-31.745
X83.82Y-34.285
X83.82Y-36.825
X83.82Y-39.365
X83.82Y-41.905
X83.82Y-44.445
X83.82Y-46.985
X83.835Y-74.935
X83.835Y-77.475
X83.835Y-80.015
X83.835Y-82.555
X83.835Y-85.095
X83.835Y-87.635
X83.835Y-90.175
X87.63Y-51.07
X87.63Y-53.07
X87.63Y-68.85
X87.63Y-70.85
X91.44Y-31.745
X91.44Y-34.285
X91.44Y-36.825
X91.44Y-39.365
X91.44Y-41.905
X91.44Y-44.445
X91.44Y-46.985
X91.455Y-74.935
X91.455Y-77.475
X91.455Y-80.015
X91.455Y-82.555
X91.455Y-85.095
X91.455Y-87.635
X91.455Y-90.175
X95.235Y-31.745
X95.235Y-34.285
X95.235Y-36.825
X95.235Y-39.365
X95.235Y-41.905
X95.235Y-44.445
X95.235Y-46.985
X95.25Y-74.93
X95.25Y-77.47
X95.25Y-80.01
X95.25Y-82.55
X95.25Y-85.09
X95.25Y-87.63
X95.25Y-90.17
X99.06Y-51.07
X99.06Y-53.07
X99.06Y-68.85
X99.06Y-70.85
X102.855Y-31.745
X102.855Y-34.285
X102.855Y-36.825
X102.855Y-39.365
X102.855Y-41.905
X102.855Y-44.445
X102.855Y-46.985
X102.87Y-74.93
X102.87Y-77.47
X102.87Y-80.01
X102.87Y-82.55
X102.87Y-85.09
X102.87Y-87.63
X102.87Y-90.17
X106.565Y-31.745
X106.565Y-34.285
X106.565Y-36.825
X106.565Y-39.365
X106.565Y-41.905
X106.565Y-44.445
X106.565Y-46.985
X106.68Y-74.93
X106.68Y-77.47
X106.68Y-80.01
X106.68Y-82.55
X106.68Y-85.09
X106.68Y-87.63
X106.68Y-90.17
X108.585Y-57.15
X108.585Y-64.77
X110.49Y-51.07
X110.49Y-53.07
X110.49Y-68.85
X110.49Y-70.85
X111.125Y-57.15
X111.125Y-64.77
X113.665Y-57.15
X113.665Y-64.77
X114.185Y-31.745
X114.185Y-34.285
X114.185Y-36.825
X114.185Y-39.365
X114.185Y-41.905
X114.185Y-44.445
X114.185Y-46.985
X114.3Y-74.93
X114.3Y-77.47
X114.3Y-80.01
X114.3Y-82.55
X114.3Y-85.09
X114.3Y-87.63
X114.3Y-90.17
X116.205Y-51.07
X116.205Y-53.07
X116.205Y-57.15
X116.205Y-64.77
X118.08Y-31.745
X118.08Y-34.285
X118.08Y-36.825
X118.08Y-39.365
X118.08Y-41.905
X118.08Y-44.445
X118.08Y-46.985
X118.11Y-74.93
X118.11Y-77.47
X118.11Y-80.01
X118.11Y-82.55
X118.11Y-85.09
X118.11Y-87.63
X118.11Y-90.17
X118.745Y-57.15
X118.745Y-64.77
X121.285Y-57.15
X121.285Y-64.77
X121.905Y-51.07
X121.905Y-53.07
X121.905Y-68.85
X121.905Y-70.85
X123.825Y-57.15
X123.825Y-64.77
X125.7Y-31.745
X125.7Y-34.285
X125.7Y-36.825
X125.7Y-39.365
X125.7Y-41.905
X125.7Y-44.445
X125.7Y-46.985
X125.73Y-74.93
X125.73Y-77.47
X125.73Y-80.01
X125.73Y-82.55
X125.73Y-85.09
X125.73Y-87.63
X125.73Y-90.17
X129.51Y-31.745
X129.51Y-34.285
X129.51Y-36.825
X129.51Y-39.365
X129.51Y-41.905
X129.51Y-44.445
X129.51Y-46.985
X129.555Y-74.935
X129.555Y-77.475
X129.555Y-80.015
X129.555Y-82.555
X129.555Y-85.095
X129.555Y-87.635
X129.555Y-90.175
X131.445Y-57.15
X131.445Y-64.77
X133.335Y-51.07
X133.335Y-53.07
X133.35Y-68.85
X133.35Y-70.85
X133.985Y-57.15
X133.985Y-64.77
X136.525Y-57.15
X136.525Y-64.77
X137.13Y-31.745
X137.13Y-34.285
X137.13Y-36.825
X137.13Y-39.365
X137.13Y-41.905
X137.13Y-44.445
X137.13Y-46.985
X137.175Y-74.935
X137.175Y-77.475
X137.175Y-80.015
X137.175Y-82.555
X137.175Y-85.095
X137.175Y-87.635
X137.175Y-90.175
X139.05Y-51.07
X139.05Y-53.07
X139.065Y-57.15
X139.065Y-64.77
X140.94Y-31.745
X140.94Y-34.285
X140.94Y-36.825
X140.94Y-39.365
X140.94Y-41.905
X140.94Y-44.445
X140.94Y-46.985
X140.985Y-74.935
X140.985Y-77.475
X140.985Y-80.015
X140.985Y-82.555
X140.985Y-85.095
X140.985Y-87.635
X140.985Y-90.175
X141.605Y-57.15
X141.605Y-64.77
X144.145Y-57.15
X144.145Y-64.77
X144.78Y-51.07
X144.78Y-53.07
X144.78Y-68.85
X144.78Y-70.85
X146.685Y-57.15
X146.685Y-64.77
X148.56Y-31.745
X148.56Y-34.285
X148.56Y-36.825
X148.56Y-39.365
X148.56Y-41.905
X148.56Y-44.445
X148.56Y-46.985
X148.605Y-74.935
X148.605Y-77.475
X148.605Y-80.015
X148.605Y-82.555
X148.605Y-85.095
X148.605Y-87.635
X148.605Y-90.175
X152.37Y-31.745
X152.37Y-34.285
X152.37Y-36.825
X152.37Y-39.365
X152.37Y-41.905
X152.37Y-44.445
X152.37Y-46.985
X152.415Y-74.935
X152.415Y-77.475
X152.415Y-80.015
X152.415Y-82.555
X152.415Y-85.095
X152.415Y-87.635
X152.415Y-90.175
X154.305Y-57.15
X154.305Y-64.77
X156.195Y-51.07
X156.195Y-53.07
X156.21Y-68.85
X156.21Y-70.85
X156.845Y-57.15
X156.845Y-64.77
X159.385Y-57.15
X159.385Y-64.77
X159.99Y-31.745
X159.99Y-34.285
X159.99Y-36.825
X159.99Y-39.365
X159.99Y-41.905
X159.99Y-44.445
X159.99Y-46.985
X160.035Y-74.935
X160.035Y-77.475
X160.035Y-80.015
X160.035Y-82.555
X160.035Y-85.095
X160.035Y-87.635
X160.035Y-90.175
X161.91Y-51.07
X161.91Y-53.07
X161.925Y-57.15
X161.925Y-64.77
X163.8Y-31.745
X163.8Y-34.285
X163.8Y-36.825
X163.8Y-39.365
X163.8Y-41.905
X163.8Y-44.445
X163.8Y-46.985
X163.845Y-74.935
X163.845Y-77.475
X163.845Y-80.015
X163.845Y-82.555
X163.845Y-85.095
X163.845Y-87.635
X163.845Y-90.175
X164.465Y-57.15
X164.465Y-64.77
X167.005Y-57.15
X167.005Y-64.77
X167.625Y-51.07
X167.625Y-53.07
X167.625Y-68.85
X167.625Y-70.85
X169.545Y-57.15
X169.545Y-64.77
X171.42Y-31.745
X171.42Y-34.285
X171.42Y-36.825
X171.42Y-39.365
X171.42Y-41.905
X171.42Y-44.445
X171.42Y-46.985
X171.465Y-74.935
X171.465Y-77.475
X171.465Y-80.015
X171.465Y-82.555
X171.465Y-85.095
X171.465Y-87.635
X171.465Y-90.175
X175.245Y-31.745
X175.245Y-34.285
X175.245Y-36.825
X175.245Y-39.365
X175.245Y-41.905
X175.245Y-44.445
X175.245Y-46.985
X175.275Y-74.935
X175.275Y-77.475
X175.275Y-80.015
X175.275Y-82.555
X175.275Y-85.095
X175.275Y-87.635
X175.275Y-90.175
X177.165Y-57.15
X177.165Y-64.77
X179.055Y-51.07
X179.055Y-53.07
X179.055Y-68.85
X179.055Y-70.85
X179.705Y-57.15
X179.705Y-64.77
X182.245Y-57.15
X182.245Y-64.77
X182.865Y-31.745
X182.865Y-34.285
X182.865Y-36.825
X182.865Y-39.365
X182.865Y-41.905
X182.865Y-44.445
X182.865Y-46.985
X182.895Y-74.935
X182.895Y-77.475
X182.895Y-80.015
X182.895Y-82.555
X182.895Y-85.095
X182.895Y-87.635
X182.895Y-90.175
X184.785Y-51.07
X184.785Y-53.07
X184.785Y-57.15
X184.785Y-64.77
X186.675Y-31.745
X186.675Y-34.285
X186.675Y-36.825
X186.675Y-39.365
X186.675Y-41.905
X186.675Y-44.445
X186.675Y-46.985
X186.705Y-74.935
X186.705Y-77.475
X186.705Y-80.015
X186.705Y-82.555
X186.705Y-85.095
X186.705Y-87.635
X186.705Y-90.175
X187.325Y-57.15
X187.325Y-64.77
X189.865Y-57.15
X189.865Y-64.77
X190.485Y-51.07
X190.485Y-53.07
X190.5Y-68.85
X190.5Y-70.85
X192.405Y-57.15
X192.405Y-64.77
X194.295Y-31.745
X194.295Y-34.285
X194.295Y-36.825
X194.295Y-39.365
X194.295Y-41.905
X194.295Y-44.445
X194.295Y-46.985
X194.325Y-74.935
X194.325Y-77.475
X194.325Y-80.015
X194.325Y-82.555
X194.325Y-85.095
X194.325Y-87.635
X194.325Y-90.175
X198.755Y-40.005
X198.755Y-47.625
X198.755Y-51.435
X198.755Y-59.055
X198.755Y-62.865
X198.755Y-70.485
X198.755Y-74.295
X198.755Y-81.915
X201.93Y-40.005
X201.93Y-47.625
X201.93Y-51.435
X201.93Y-59.055
X201.93Y-62.865
X201.93Y-70.485
X201.93Y-74.295
X201.93Y-81.915
X205.105Y-40.005
X205.105Y-47.625
X205.105Y-51.435
X205.105Y-59.055
X205.105Y-62.865
X205.105Y-70.485
X205.105Y-74.295
X205.105Y-81.915
X208.28Y-40.005
X208.28Y-47.625
X208.28Y-51.435
X208.28Y-59.055
X208.28Y-62.865
X208.28Y-70.485
X208.28Y-74.295
X208.28Y-81.915
T4
X211.455Y-40.64
X211.455Y-46.355
X211.455Y-52.07
X211.455Y-57.785
X211.455Y-69.215
X211.455Y-74.93
X211.455Y-80.645
X211.46Y-63.5
X213.995Y-40.64
X213.995Y-46.355
X213.995Y-52.07
X213.995Y-57.785
X213.995Y-69.215
X213.995Y-74.93
X213.995Y-80.645
X214.0Y-63.5
T5
X75.565Y-37.465
X75.565Y-40.005
X75.565Y-42.545
X75.565Y-45.085
X75.565Y-57.15
X75.565Y-59.69
X75.565Y-62.23
X75.565Y-64.77
X75.565Y-76.835
X75.565Y-79.375
X75.565Y-81.915
X75.565Y-84.455
X78.105Y-37.465
X78.105Y-40.005
X78.105Y-42.545
X78.105Y-45.085
X78.105Y-57.15
X78.105Y-59.69
X78.105Y-62.23
X78.105Y-64.77
X78.105Y-76.835
X78.105Y-79.375
X78.105Y-81.915
X78.105Y-84.455
T6
X100.965Y-60.96
X215.265Y-31.75
X215.265Y-90.17
M30
